<?xml version="1.0" encoding="iso-8859-1"?>
<!-- Generator: Adobe Illustrator 19.0.0, SVG Export Plug-In . SVG Version: 6.00 Build 0)  -->
<svg version="1.1" id="Layer_1" xmlns="http://www.w3.org/2000/svg" xmlns:xlink="http://www.w3.org/1999/xlink" x="0px" y="0px"
	 viewBox="0 0 492.308 492.308" style="enable-background:new 0 0 492.308 492.308;" xml:space="preserve">
<g>
	<g>
		<path d="M172.587,150.904c-25.38,0-46.024,20.644-46.024,46.019c0,25.385,20.644,46.029,46.024,46.029
			c25.38,0,46.024-20.644,46.024-46.029C218.611,171.548,197.966,150.904,172.587,150.904z M172.587,223.26
			c-14.519,0-26.332-11.817-26.332-26.337s11.813-26.327,26.332-26.327s26.332,11.808,26.332,26.327S187.106,223.26,172.587,223.26z
			"/>
	</g>
</g>
<g>
	<g>
		<path d="M319.726,150.904c-25.38,0-46.024,20.644-46.024,46.019c0,25.385,20.644,46.029,46.024,46.029
			c25.375,0,46.019-20.644,46.019-46.029C365.745,171.548,345.101,150.904,319.726,150.904z M319.726,223.26
			c-14.519,0-26.332-11.817-26.332-26.337s11.813-26.327,26.332-26.327c14.514,0,26.327,11.808,26.327,26.327
			S334.24,223.26,319.726,223.26z"/>
	</g>
</g>
<g>
	<g>
		<path d="M246.154,0C110.423,0,0,110.423,0,246.154s110.423,246.154,246.154,246.154s246.154-110.423,246.154-246.154
			S381.885,0,246.154,0z M246.154,472.615c-124.87,0-226.462-101.587-226.462-226.462S121.284,19.692,246.154,19.692
			s226.462,101.587,226.462,226.462S371.024,472.615,246.154,472.615z"/>
	</g>
</g>
<g>
	<g>
		<path d="M364.452,364.452c-31.654,31.654-73.668,49.087-118.303,49.087c-44.635,0-86.649-17.433-118.298-49.087l-13.923,13.923
			c35.365,35.375,82.327,54.856,132.221,54.856S343,413.75,378.375,378.375L364.452,364.452z"/>
	</g>
</g>
<g>
</g>
<g>
</g>
<g>
</g>
<g>
</g>
<g>
</g>
<g>
</g>
<g>
</g>
<g>
</g>
<g>
</g>
<g>
</g>
<g>
</g>
<g>
</g>
<g>
</g>
<g>
</g>
<g>
</g>
</svg>
